<?xml version="1.0" standalone="no"?>
<!DOCTYPE svg PUBLIC "-//W3C//DTD SVG 20010904//EN"
 "http://www.w3.org/TR/2001/REC-SVG-20010904/DTD/svg10.dtd">
<svg version="1.0" xmlns="http://www.w3.org/2000/svg"
 width="384.000000pt" height="384.000000pt" viewBox="0 0 384.000000 384.000000"
 preserveAspectRatio="xMidYMid meet">
<metadata>
Created by potrace 1.16, written by Peter Selinger 2001-2019
</metadata>
<g transform="translate(0.000000,384.000000) scale(0.100000,-0.100000)"
fill="#000000" stroke="none">
<path d="M2415 3444 c-169 -22 -284 -62 -737 -252 -345 -146 -438 -165 -587
-122 -43 13 -86 20 -95 17 -13 -5 -16 -22 -16 -90 0 -102 -18 -237 -70 -512
-22 -115 -49 -264 -61 -330 -11 -66 -34 -194 -50 -285 -63 -353 -89 -722 -60
-867 30 -156 79 -236 155 -253 48 -11 160 8 306 50 181 52 319 73 445 66 198
-10 280 -40 592 -210 197 -107 258 -129 364 -130 79 -1 91 2 161 36 160 79
253 219 304 458 22 103 25 407 5 595 -17 158 -48 414 -66 545 -8 58 -33 240
-55 405 -59 434 -90 584 -147 703 -32 65 -98 125 -167 151 -53 20 -165 32
-221 25z m-124 -293 c102 -64 190 -234 244 -471 91 -397 80 -810 -30 -1145
-37 -115 -91 -226 -130 -273 -23 -28 -33 -32 -73 -32 -26 0 -79 9 -117 20
-118 35 -149 31 -335 -40 -270 -102 -451 -161 -515 -167 -57 -5 -63 -3 -105
29 -104 78 -139 212 -147 554 -7 303 3 410 102 1126 8 59 15 120 15 137 0 42
15 47 52 16 57 -48 102 -65 175 -65 85 0 141 25 368 167 213 133 300 171 396
172 44 1 64 -5 100 -28z"/>
<path d="M2061 2930 c-30 -11 -112 -56 -182 -100 -70 -44 -180 -106 -245 -137
-111 -54 -124 -58 -191 -57 -88 0 -88 -1 -41 -114 35 -84 86 -148 135 -169 28
-11 39 -11 75 3 62 22 71 22 85 -6 16 -34 19 -175 4 -194 -19 -22 -202 -76
-287 -84 -73 -7 -79 -9 -88 -34 -7 -20 -4 -43 13 -95 41 -123 88 -173 161
-173 33 0 131 47 145 70 3 5 15 10 27 10 19 0 20 -4 13 -47 -18 -121 -56 -198
-108 -216 -17 -6 17 -42 54 -57 29 -12 38 -33 19 -45 -14 -9 -143 -41 -245
-60 -63 -12 -112 -16 -166 -11 -41 3 -78 4 -81 0 -8 -7 15 -102 31 -134 39
-75 87 -95 153 -65 104 47 357 139 443 161 127 33 318 42 482 24 126 -14 133
-12 133 41 0 39 -30 120 -58 158 -14 19 -42 41 -64 49 -21 8 -38 19 -38 24 0
4 28 22 62 38 97 47 148 105 148 168 0 72 -105 111 -322 119 -194 8 -214 21
-95 63 64 23 136 26 202 8 39 -11 47 -10 62 5 37 37 26 217 -18 278 -41 58
-145 45 -266 -33 -75 -48 -93 -45 -93 14 0 34 -7 52 -31 81 -17 20 -28 41 -25
46 6 9 92 32 189 51 21 4 55 4 75 -1 20 -5 44 -6 54 -3 37 11 98 207 98 315 0
59 -3 68 -30 94 -40 38 -112 44 -189 15z m-27 -1005 c34 -23 56 -65 56 -107 0
-37 -47 -141 -80 -175 -24 -27 -92 -63 -116 -63 -18 0 -19 -8 11 185 8 55 15
117 15 137 0 59 45 68 114 23z"/>
</g>
</svg>
